<svg version="1.0" xmlns="http://www.w3.org/2000/svg"
 viewBox="0 0 512.000000 512.000000"
 preserveAspectRatio="xMidYMid meet" class="icon-img">

<g transform="translate(0.000000,512.000000) scale(0.100000,-0.100000)"
fill="#ffffff" stroke="none" class="g">
<path d="M1204 4581 c-122 -20 -232 -77 -315 -167 -59 -64 -92 -122 -118 -208
-21 -68 -21 -75 -21 -1648 l0 -1579 25 -75 c14 -41 37 -93 51 -117 64 -103
180 -192 299 -230 66 -21 88 -22 375 -22 304 0 305 0 376 26 164 60 273 169
336 335 l23 59 3 1565 c2 1105 0 1584 -8 1630 -31 184 -168 342 -354 408 -69
25 -80 26 -346 28 -151 1 -298 -1 -326 -5z"/>
<path d="M3329 4580 c-215 -34 -400 -212 -438 -424 -15 -83 -15 -3109 0 -3192
34 -191 188 -355 389 -416 34 -10 122 -13 345 -13 282 0 304 1 370 22 178 56
313 199 360 379 13 51 15 261 15 1624 0 1711 3 1613 -58 1738 -56 115 -182
221 -311 264 -60 19 -91 21 -341 24 -151 1 -300 -1 -331 -6z"/>
</g>
</svg>
